<svg width="390" height="47" viewBox="0 0 390 47" fill="none" xmlns="http://www.w3.org/2000/svg">
<g clip-path="url(#clip0_1_3243)">
<path d="M42.8747 19.8145C45.2321 19.8311 47.5563 21.2256 47.5729 25.625C47.5729 29.7754 45.697 32.166 42.7419 32.166C40.4177 32.166 38.8239 30.7217 38.5583 28.7295H40.6999C40.9157 29.6758 41.6462 30.29 42.7419 30.29C44.485 30.29 45.4645 28.7461 45.4811 26.1729H45.3483C44.7341 27.2188 43.5886 27.833 42.2604 27.833C40.1188 27.833 38.4587 26.2061 38.4421 23.9316C38.4421 21.5742 40.2018 19.7979 42.8747 19.8145ZM42.8913 21.5576C41.5466 21.5576 40.5339 22.6035 40.5505 23.8818C40.5505 25.1768 41.5134 26.1895 42.8581 26.1895C44.1862 26.1895 45.2321 25.1104 45.2155 23.8652C45.2155 22.6367 44.236 21.5576 42.8913 21.5576ZM50.286 30.5059C49.5722 30.5059 48.9911 29.9248 48.9911 29.2109C48.9911 28.5137 49.5722 27.9326 50.286 27.9326C50.9667 27.9326 51.5644 28.5137 51.5644 29.2109C51.5644 29.9248 50.9667 30.5059 50.286 30.5059ZM50.286 24.0645C49.5722 24.0645 48.9911 23.4834 48.9911 22.7695C48.9911 22.0723 49.5722 21.4912 50.286 21.4912C50.9667 21.4912 51.5644 22.0723 51.5644 22.7695C51.5644 23.4834 50.9667 24.0645 50.286 24.0645ZM52.9659 29.7588V28.0322L58.1622 19.9805H60.8517V27.9824H62.4288V29.7588H60.8517V32H58.7931V29.7588H52.9659ZM55.1739 27.9824H58.8263V22.4375H58.6935L55.1739 27.8994V27.9824ZM68.4622 19.9805V32H66.2874V22.0889H66.221L63.4153 23.8818V21.9062L66.387 19.9805H68.4622Z" fill="black"/>
<path opacity="0.35" d="M336.5 23C336.5 21.067 338.067 19.5 340 19.5H357C358.933 19.5 360.5 21.067 360.5 23V28C360.5 29.933 358.933 31.5 357 31.5H340C338.067 31.5 336.5 29.933 336.5 28V23Z" stroke="black"/>
<path opacity="0.4" d="M362 24V28.2203C362.849 27.8629 363.401 27.0314 363.401 26.1102C363.401 25.1889 362.849 24.3574 362 24Z" fill="black"/>
<path d="M338 23C338 21.8954 338.895 21 340 21H357C358.105 21 359 21.8954 359 23V28C359 29.1046 358.105 30 357 30H340C338.895 30 338 29.1046 338 28V23Z" fill="black"/>
<path fill-rule="evenodd" clip-rule="evenodd" d="M320.5 22.5875C322.967 22.5876 325.339 23.5551 327.127 25.2898C327.261 25.4237 327.477 25.4221 327.609 25.286L328.896 23.9605C328.963 23.8915 329.001 23.798 329 23.7008C328.999 23.6035 328.961 23.5105 328.893 23.4423C324.201 18.8526 316.799 18.8526 312.107 23.4423C312.039 23.5105 312.001 23.6034 312 23.7007C311.999 23.7979 312.037 23.8914 312.104 23.9605L313.391 25.286C313.523 25.4223 313.739 25.424 313.873 25.2898C315.661 23.5549 318.034 22.5875 320.5 22.5875ZM320.536 26.5894C321.891 26.5893 323.198 27.1035 324.203 28.032C324.338 28.1638 324.552 28.1609 324.685 28.0255L325.97 26.7C326.038 26.6304 326.075 26.5361 326.074 26.4381C326.073 26.3401 326.034 26.2466 325.965 26.1784C322.906 23.2739 318.169 23.2739 315.109 26.1784C315.04 26.2466 315.001 26.3401 315 26.4382C314.999 26.5362 315.037 26.6305 315.105 26.7L316.39 28.0255C316.522 28.1609 316.736 28.1638 316.872 28.032C317.876 27.1041 319.182 26.5899 320.536 26.5894ZM323.15 29.1767C323.152 29.275 323.114 29.3698 323.045 29.4386L320.822 31.7289C320.756 31.7962 320.668 31.834 320.575 31.834C320.482 31.834 320.393 31.7962 320.328 31.7289L318.105 29.4386C318.036 29.3697 317.998 29.2749 318 29.1766C318.002 29.0783 318.044 28.9853 318.115 28.9194C319.535 27.6935 321.615 27.6935 323.035 28.9194C323.106 28.9853 323.148 29.0784 323.15 29.1767Z" fill="black"/>
<path d="M296 23C296 22.4477 296.448 22 297 22H298C298.552 22 299 22.4477 299 23V31C299 31.5523 298.552 32 298 32H297C296.448 32 296 31.5523 296 31V23Z" fill="black"/>
<path d="M301 21C301 20.4477 301.448 20 302 20H303C303.552 20 304 20.4477 304 21V31C304 31.5523 303.552 32 303 32H302C301.448 32 301 31.5523 301 31V21Z" fill="black"/>
<path d="M291 26.5C291 25.9477 291.448 25.5 292 25.5H293C293.552 25.5 294 25.9477 294 26.5V31C294 31.5523 293.552 32 293 32H292C291.448 32 291 31.5523 291 31V26.5Z" fill="black"/>
<path d="M286 29C286 28.4477 286.448 28 287 28H288C288.552 28 289 28.4477 289 29V31C289 31.5523 288.552 32 288 32H287C286.448 32 286 31.5523 286 31V29Z" fill="black"/>
</g>
<defs>
<clipPath id="clip0_1_3243">
<rect width="390" height="47" fill="white"/>
</clipPath>
</defs>
</svg>
