<svg width="11" height="11" viewBox="0 0 11 11" fill="none" xmlns="http://www.w3.org/2000/svg">
<path d="M4.94408 0.872705C5.09376 0.412049 5.74546 0.41205 5.89514 0.872705L6.78471 3.61053C6.85165 3.81654 7.04363 3.95602 7.26024 3.95602H10.139C10.6233 3.95602 10.8247 4.57583 10.4329 4.86053L8.10392 6.5526C7.92867 6.67992 7.85534 6.90561 7.92228 7.11162L8.81186 9.84944C8.96153 10.3101 8.43429 10.6932 8.04243 10.4085L5.7135 8.71639C5.53826 8.58907 5.30096 8.58907 5.12572 8.71639L2.79678 10.4085C2.40492 10.6932 1.87769 10.3101 2.02736 9.84944L2.91693 7.11162C2.98387 6.90561 2.91054 6.67992 2.7353 6.5526L0.406365 4.86053C0.014508 4.57583 0.215896 3.95602 0.700258 3.95602H3.57898C3.79559 3.95602 3.98757 3.81654 4.05451 3.61053L4.94408 0.872705Z" fill="#6B7684"/>
</svg>
