<svg width="22" height="18" viewBox="0 0 22 18" fill="none" xmlns="http://www.w3.org/2000/svg">
<path d="M2.75 0C1.51625 0 0.5 1.01625 0.5 2.25V14.75C0.5 16.536 1.96403 18 3.75 18H18.25C20.036 18 21.5 16.536 21.5 14.75V7.25C21.5 6.01625 20.4838 5 19.25 5H18.5V2.25C18.5 1.01625 17.4838 0 16.25 0H2.75ZM2.75 1.5H16.25C16.6733 1.5 17 1.82675 17 2.25V5.62695C16.9868 5.70747 16.9868 5.7896 17 5.87012V14.25C16.9986 14.3494 17.017 14.4481 17.054 14.5403C17.0911 14.6325 17.1461 14.7164 17.2159 14.7872C17.2857 14.858 17.3688 14.9142 17.4605 14.9526C17.5522 14.9909 17.6506 15.0107 17.75 15.0107C17.8494 15.0107 17.9478 14.9909 18.0395 14.9526C18.1312 14.9142 18.2143 14.858 18.2841 14.7872C18.3539 14.7164 18.4089 14.6325 18.446 14.5403C18.483 14.4481 18.5014 14.3494 18.5 14.25V6.5H19.25C19.6733 6.5 20 6.82675 20 7.25V14.75C20 15.725 19.225 16.5 18.25 16.5H3.75C2.77497 16.5 2 15.725 2 14.75V2.25C2 1.82675 2.32675 1.5 2.75 1.5ZM4.25 4.5C4.15062 4.49859 4.05194 4.51696 3.95972 4.55402C3.86749 4.59108 3.78355 4.6461 3.71277 4.71588C3.642 4.78566 3.58579 4.86882 3.54743 4.96051C3.50907 5.0522 3.48932 5.15061 3.48932 5.25C3.48932 5.34939 3.50907 5.4478 3.54743 5.53949C3.58579 5.63118 3.642 5.71434 3.71277 5.78412C3.78355 5.8539 3.86749 5.90892 3.95972 5.94598C4.05194 5.98304 4.15062 6.00141 4.25 6H14.75C14.8494 6.00141 14.9481 5.98304 15.0403 5.94598C15.1325 5.90892 15.2164 5.8539 15.2872 5.78412C15.358 5.71434 15.4142 5.63118 15.4526 5.53949C15.4909 5.4478 15.5107 5.34939 15.5107 5.25C15.5107 5.15061 15.4909 5.0522 15.4526 4.96051C15.4142 4.86882 15.358 4.78566 15.2872 4.71588C15.2164 4.6461 15.1325 4.59108 15.0403 4.55402C14.9481 4.51696 14.8494 4.49859 14.75 4.5H4.25ZM4.25 8.5C4.05109 8.50002 3.86034 8.57904 3.71969 8.71969C3.57904 8.86034 3.50002 9.05109 3.5 9.25V12.75C3.50002 12.9489 3.57904 13.1397 3.71969 13.2803C3.86034 13.421 4.05109 13.5 4.25 13.5H7.75C7.94891 13.5 8.13966 13.421 8.28031 13.2803C8.42096 13.1397 8.49998 12.9489 8.5 12.75V9.25C8.49998 9.05109 8.42096 8.86034 8.28031 8.71969C8.13966 8.57904 7.94891 8.50002 7.75 8.5H4.25ZM10.75 8.5C10.6506 8.49859 10.5519 8.51696 10.4597 8.55402C10.3675 8.59108 10.2836 8.6461 10.2128 8.71588C10.142 8.78566 10.0858 8.86882 10.0474 8.96051C10.0091 9.0522 9.98932 9.15061 9.98932 9.25C9.98932 9.34939 10.0091 9.4478 10.0474 9.53949C10.0858 9.63118 10.142 9.71434 10.2128 9.78412C10.2836 9.8539 10.3675 9.90892 10.4597 9.94598C10.5519 9.98304 10.6506 10.0014 10.75 10H14.75C14.8494 10.0014 14.9481 9.98304 15.0403 9.94598C15.1325 9.90892 15.2164 9.8539 15.2872 9.78412C15.358 9.71434 15.4142 9.63118 15.4526 9.53949C15.4909 9.4478 15.5107 9.34939 15.5107 9.25C15.5107 9.15061 15.4909 9.0522 15.4526 8.96051C15.4142 8.86882 15.358 8.78566 15.2872 8.71588C15.2164 8.6461 15.1325 8.59108 15.0403 8.55402C14.9481 8.51696 14.8494 8.49859 14.75 8.5H10.75ZM5 10H7V12H5V10ZM10.75 12C10.6506 11.9986 10.5519 12.017 10.4597 12.054C10.3675 12.0911 10.2836 12.1461 10.2128 12.2159C10.142 12.2857 10.0858 12.3688 10.0474 12.4605C10.0091 12.5522 9.98932 12.6506 9.98932 12.75C9.98932 12.8494 10.0091 12.9478 10.0474 13.0395C10.0858 13.1312 10.142 13.2143 10.2128 13.2841C10.2836 13.3539 10.3675 13.4089 10.4597 13.446C10.5519 13.483 10.6506 13.5014 10.75 13.5H14.75C14.8494 13.5014 14.9481 13.483 15.0403 13.446C15.1325 13.4089 15.2164 13.3539 15.2872 13.2841C15.358 13.2143 15.4142 13.1312 15.4526 13.0395C15.4909 12.9478 15.5107 12.8494 15.5107 12.75C15.5107 12.6506 15.4909 12.5522 15.4526 12.4605C15.4142 12.3688 15.358 12.2857 15.2872 12.2159C15.2164 12.1461 15.1325 12.0911 15.0403 12.054C14.9481 12.017 14.8494 11.9986 14.75 12H10.75Z" fill="black"/>
</svg>
