<svg width="20" height="20" viewBox="0 0 20 20" fill="none" xmlns="http://www.w3.org/2000/svg">
<path d="M8.4 0.399994C3.9912 0.399994 0.400002 3.99119 0.400002 8.39999C0.400002 12.8088 3.9912 16.4 8.4 16.4C10.3172 16.4 12.0779 15.7192 13.4578 14.5891L18.2344 19.3656C18.3081 19.4424 18.3964 19.5037 18.4941 19.5459C18.5918 19.5882 18.6969 19.6105 18.8034 19.6115C18.9098 19.6126 19.0154 19.5925 19.1139 19.5522C19.2125 19.512 19.302 19.4525 19.3773 19.3773C19.4525 19.302 19.512 19.2125 19.5522 19.1139C19.5925 19.0154 19.6126 18.9098 19.6116 18.8034C19.6105 18.6969 19.5882 18.5918 19.5459 18.4941C19.5037 18.3964 19.4424 18.3081 19.3656 18.2344L14.5891 13.4578C15.7192 12.0779 16.4 10.3172 16.4 8.39999C16.4 3.99119 12.8088 0.399994 8.4 0.399994ZM8.4 1.99999C11.9441 1.99999 14.8 4.8559 14.8 8.39999C14.8 11.9441 11.9441 14.8 8.4 14.8C4.8559 14.8 2 11.9441 2 8.39999C2 4.8559 4.8559 1.99999 8.4 1.99999Z" fill="black"/>
</svg>
