<svg width="18" height="20" viewBox="0 0 18 20" fill="none" xmlns="http://www.w3.org/2000/svg">
<path d="M16.75 19.5H12.25C11.5595 19.5 11 18.9405 11 18.25V13.75C11 13.1975 10.5525 12.75 10 12.75H8C7.4475 12.75 7 13.1975 7 13.75V18.25C7 18.9405 6.4405 19.5 5.75 19.5H1.25C0.5595 19.5 0 18.9405 0 18.25V8.7065C0 7.557 0.527 6.471 1.4295 5.76L8.5355 0.1605C8.808 -0.0535 9.192 -0.0535 9.464 0.1605L16.571 5.76C17.4735 6.471 18 7.5565 18 8.7055V18.25C18 18.9405 17.4405 19.5 16.75 19.5Z" fill="black"/>
</svg>
