<svg width="22" height="14" viewBox="0 0 22 14" fill="none" xmlns="http://www.w3.org/2000/svg">
<path d="M1.4114 0.600078C1.30539 0.598579 1.20014 0.618164 1.10177 0.657695C1.00339 0.697226 0.913854 0.755915 0.838358 0.83035C0.762863 0.904786 0.702914 0.993484 0.661996 1.09129C0.621077 1.1891 0.600006 1.29406 0.600006 1.40008C0.600006 1.5061 0.621077 1.61106 0.661996 1.70887C0.702914 1.80667 0.762863 1.89537 0.838358 1.96981C0.913854 2.04424 1.00339 2.10293 1.10177 2.14246C1.20014 2.18199 1.30539 2.20158 1.4114 2.20008H20.6114C20.7174 2.20158 20.8227 2.18199 20.921 2.14246C21.0194 2.10293 21.1089 2.04424 21.1844 1.96981C21.2599 1.89537 21.3199 1.80667 21.3608 1.70887C21.4017 1.61106 21.4228 1.5061 21.4228 1.40008C21.4228 1.29406 21.4017 1.1891 21.3608 1.09129C21.3199 0.993484 21.2599 0.904786 21.1844 0.83035C21.1089 0.755915 21.0194 0.697226 20.921 0.657695C20.8227 0.618164 20.7174 0.598579 20.6114 0.600078H1.4114ZM1.4114 6.20008C1.30539 6.19858 1.20014 6.21816 1.10177 6.2577C1.00339 6.29723 0.913854 6.35592 0.838358 6.43035C0.762863 6.50479 0.702914 6.59348 0.661996 6.69129C0.621077 6.7891 0.600006 6.89406 0.600006 7.00008C0.600006 7.1061 0.621077 7.21106 0.661996 7.30887C0.702914 7.40667 0.762863 7.49537 0.838358 7.56981C0.913854 7.64424 1.00339 7.70293 1.10177 7.74246C1.20014 7.78199 1.30539 7.80158 1.4114 7.80008H20.6114C20.7174 7.80158 20.8227 7.78199 20.921 7.74246C21.0194 7.70293 21.1089 7.64424 21.1844 7.56981C21.2599 7.49537 21.3199 7.40667 21.3608 7.30887C21.4017 7.21106 21.4228 7.1061 21.4228 7.00008C21.4228 6.89406 21.4017 6.7891 21.3608 6.69129C21.3199 6.59348 21.2599 6.50479 21.1844 6.43035C21.1089 6.35592 21.0194 6.29723 20.921 6.2577C20.8227 6.21816 20.7174 6.19858 20.6114 6.20008H1.4114ZM1.4114 11.8001C1.30539 11.7986 1.20014 11.8182 1.10177 11.8577C1.00339 11.8972 0.913854 11.9559 0.838358 12.0304C0.762863 12.1048 0.702914 12.1935 0.661996 12.2913C0.621077 12.3891 0.600006 12.4941 0.600006 12.6001C0.600006 12.7061 0.621077 12.8111 0.661996 12.9089C0.702914 13.0067 0.762863 13.0954 0.838358 13.1698C0.913854 13.2442 1.00339 13.3029 1.10177 13.3425C1.20014 13.382 1.30539 13.4016 1.4114 13.4001H20.6114C20.7174 13.4016 20.8227 13.382 20.921 13.3425C21.0194 13.3029 21.1089 13.2442 21.1844 13.1698C21.2599 13.0954 21.3199 13.0067 21.3608 12.9089C21.4017 12.8111 21.4228 12.7061 21.4228 12.6001C21.4228 12.4941 21.4017 12.3891 21.3608 12.2913C21.3199 12.1935 21.2599 12.1048 21.1844 12.0304C21.1089 11.9559 21.0194 11.8972 20.921 11.8577C20.8227 11.8182 20.7174 11.7986 20.6114 11.8001H1.4114Z" fill="black"/>
</svg>
