<svg width="14" height="14" viewBox="0 0 14 14" fill="none" xmlns="http://www.w3.org/2000/svg">
<path d="M6.04426 1.10489C6.33393 0.163822 7.66607 0.163825 7.95574 1.1049L8.80337 3.85854C8.93251 4.27807 9.32015 4.56434 9.75911 4.56434H12.6123C13.5679 4.56434 13.9791 5.77633 13.2209 6.35785L10.8212 8.19818C10.4895 8.45255 10.351 8.88639 10.474 9.28589L11.3684 12.1914C11.6549 13.1224 10.577 13.8719 9.8041 13.2792L7.60855 11.5954C7.24956 11.3201 6.75044 11.3201 6.39145 11.5954L4.19591 13.2792C3.42301 13.8719 2.34506 13.1224 2.63161 12.1914L3.52599 9.28588C3.64897 8.88639 3.51049 8.45255 3.1788 8.19818L0.779129 6.35785C0.0208566 5.77633 0.432093 4.56434 1.38768 4.56434H4.24089C4.67985 4.56434 5.06749 4.27807 5.19663 3.85853L6.04426 1.10489Z" fill="#FFD158"/>
</svg>
