<svg width="24" height="24" viewBox="0 0 24 24" fill="none" xmlns="http://www.w3.org/2000/svg">
<path d="M2.4114 5.60008C2.30539 5.59858 2.20014 5.61816 2.10177 5.6577C2.00339 5.69723 1.91385 5.75591 1.83836 5.83035C1.76286 5.90479 1.70291 5.99348 1.662 6.09129C1.62108 6.1891 1.60001 6.29406 1.60001 6.40008C1.60001 6.5061 1.62108 6.61106 1.662 6.70887C1.70291 6.80667 1.76286 6.89537 1.83836 6.96981C1.91385 7.04424 2.00339 7.10293 2.10177 7.14246C2.20014 7.18199 2.30539 7.20158 2.4114 7.20008H21.6114C21.7174 7.20158 21.8227 7.18199 21.921 7.14246C22.0194 7.10293 22.1089 7.04424 22.1844 6.96981C22.2599 6.89537 22.3199 6.80667 22.3608 6.70887C22.4017 6.61106 22.4228 6.5061 22.4228 6.40008C22.4228 6.29406 22.4017 6.1891 22.3608 6.09129C22.3199 5.99348 22.2599 5.90479 22.1844 5.83035C22.1089 5.75591 22.0194 5.69723 21.921 5.6577C21.8227 5.61816 21.7174 5.59858 21.6114 5.60008H2.4114ZM2.4114 11.2001C2.30539 11.1986 2.20014 11.2182 2.10177 11.2577C2.00339 11.2972 1.91385 11.3559 1.83836 11.4304C1.76286 11.5048 1.70291 11.5935 1.662 11.6913C1.62108 11.7891 1.60001 11.8941 1.60001 12.0001C1.60001 12.1061 1.62108 12.2111 1.662 12.3089C1.70291 12.4067 1.76286 12.4954 1.83836 12.5698C1.91385 12.6442 2.00339 12.7029 2.10177 12.7425C2.20014 12.782 2.30539 12.8016 2.4114 12.8001H21.6114C21.7174 12.8016 21.8227 12.782 21.921 12.7425C22.0194 12.7029 22.1089 12.6442 22.1844 12.5698C22.2599 12.4954 22.3199 12.4067 22.3608 12.3089C22.4017 12.2111 22.4228 12.1061 22.4228 12.0001C22.4228 11.8941 22.4017 11.7891 22.3608 11.6913C22.3199 11.5935 22.2599 11.5048 22.1844 11.4304C22.1089 11.3559 22.0194 11.2972 21.921 11.2577C21.8227 11.2182 21.7174 11.1986 21.6114 11.2001H2.4114ZM2.4114 16.8001C2.30539 16.7986 2.20014 16.8182 2.10177 16.8577C2.00339 16.8972 1.91385 16.9559 1.83836 17.0304C1.76286 17.1048 1.70291 17.1935 1.662 17.2913C1.62108 17.3891 1.60001 17.4941 1.60001 17.6001C1.60001 17.7061 1.62108 17.8111 1.662 17.9089C1.70291 18.0067 1.76286 18.0954 1.83836 18.1698C1.91385 18.2442 2.00339 18.3029 2.10177 18.3425C2.20014 18.382 2.30539 18.4016 2.4114 18.4001H21.6114C21.7174 18.4016 21.8227 18.382 21.921 18.3425C22.0194 18.3029 22.1089 18.2442 22.1844 18.1698C22.2599 18.0954 22.3199 18.0067 22.3608 17.9089C22.4017 17.8111 22.4228 17.7061 22.4228 17.6001C22.4228 17.4941 22.4017 17.3891 22.3608 17.2913C22.3199 17.1935 22.2599 17.1048 22.1844 17.0304C22.1089 16.9559 22.0194 16.8972 21.921 16.8577C21.8227 16.8182 21.7174 16.7986 21.6114 16.8001H2.4114Z" fill="black"/>
</svg>
