<svg width="16" height="16" viewBox="0 0 16 16" fill="none" xmlns="http://www.w3.org/2000/svg">
<path d="M3.33333 12V14.5107L4.34333 13.9047L7.518 12H10.6667C11.402 12 12 11.402 12 10.6667V5.33333C12 4.598 11.402 4 10.6667 4H2.66666C1.93133 4 1.33333 4.598 1.33333 5.33333V10.6667C1.33333 11.402 1.93133 12 2.66666 12H3.33333ZM2.66666 5.33333H10.6667V10.6667H7.14866L4.66666 12.156V10.6667H2.66666V5.33333Z" fill="#8C8C8C"/>
<path d="M13.3333 1.33333H5.33333C4.598 1.33333 4 1.93133 4 2.66667H12C12.7353 2.66667 13.3333 3.26467 13.3333 4V9.33333C14.0687 9.33333 14.6667 8.73533 14.6667 8V2.66667C14.6667 1.93133 14.0687 1.33333 13.3333 1.33333Z" fill="#8C8C8C"/>
</svg>
