<svg width="14" height="14" viewBox="0 0 14 14" fill="none" xmlns="http://www.w3.org/2000/svg">
<path d="M13.4219 3.43125C13.2124 2.9463 12.9104 2.50685 12.5328 2.1375C12.1549 1.76704 11.7093 1.47264 11.2203 1.27031C10.7132 1.05967 10.1694 0.951857 9.62031 0.953121C8.85 0.953121 8.09844 1.16406 7.44531 1.5625C7.28906 1.65781 7.14062 1.7625 7 1.87656C6.85938 1.7625 6.71094 1.65781 6.55469 1.5625C5.90156 1.16406 5.15 0.953121 4.37969 0.953121C3.825 0.953121 3.2875 1.05937 2.77969 1.27031C2.28906 1.47343 1.84687 1.76562 1.46719 2.1375C1.08906 2.50644 0.786997 2.94599 0.578125 3.43125C0.360938 3.93593 0.25 4.47187 0.25 5.02343C0.25 5.54375 0.35625 6.08593 0.567188 6.6375C0.74375 7.09843 0.996875 7.57656 1.32031 8.05937C1.83281 8.82343 2.5375 9.62031 3.4125 10.4281C4.8625 11.7672 6.29844 12.6922 6.35938 12.7297L6.72969 12.9672C6.89375 13.0719 7.10469 13.0719 7.26875 12.9672L7.63906 12.7297C7.7 12.6906 9.13437 11.7672 10.5859 10.4281C11.4609 9.62031 12.1656 8.82343 12.6781 8.05937C13.0016 7.57656 13.2562 7.09843 13.4312 6.6375C13.6422 6.08593 13.7484 5.54375 13.7484 5.02343C13.75 4.47187 13.6391 3.93593 13.4219 3.43125ZM7 11.7312C7 11.7312 1.4375 8.16718 1.4375 5.02343C1.4375 3.43125 2.75469 2.14062 4.37969 2.14062C5.52187 2.14062 6.5125 2.77812 7 3.70937C7.4875 2.77812 8.47813 2.14062 9.62031 2.14062C11.2453 2.14062 12.5625 3.43125 12.5625 5.02343C12.5625 8.16718 7 11.7312 7 11.7312Z" fill="#8C8C8C"/>
</svg>
