<svg width="24" height="24" viewBox="0 0 24 24" fill="none" xmlns="http://www.w3.org/2000/svg">
<path d="M10.4 2.39999C5.9912 2.39999 2.4 5.99119 2.4 10.4C2.4 14.8088 5.9912 18.4 10.4 18.4C12.3172 18.4 14.0779 17.7192 15.4578 16.5891L20.2344 21.3656C20.3081 21.4424 20.3964 21.5037 20.4941 21.5459C20.5918 21.5882 20.6969 21.6105 20.8034 21.6115C20.9098 21.6126 21.0154 21.5925 21.1139 21.5522C21.2125 21.512 21.302 21.4525 21.3773 21.3773C21.4525 21.302 21.512 21.2125 21.5522 21.1139C21.5925 21.0154 21.6126 20.9098 21.6116 20.8034C21.6105 20.6969 21.5882 20.5918 21.5459 20.4941C21.5037 20.3964 21.4424 20.3081 21.3656 20.2344L16.5891 15.4578C17.7192 14.0779 18.4 12.3172 18.4 10.4C18.4 5.99119 14.8088 2.39999 10.4 2.39999ZM10.4 3.99999C13.9441 3.99999 16.8 6.8559 16.8 10.4C16.8 13.9441 13.9441 16.8 10.4 16.8C6.8559 16.8 4 13.9441 4 10.4C4 6.8559 6.8559 3.99999 10.4 3.99999Z" fill="black"/>
</svg>
