<svg width="14" height="14" viewBox="0 0 14 14" fill="none" xmlns="http://www.w3.org/2000/svg">
<path d="M6.99999 0.333344C10.6759 0.333344 13.6667 3.32411 13.6667 7.00001C13.6667 8.09178 13.3791 9.11163 12.9128 10.0215L13.6354 12.6094C13.8037 13.2105 13.2093 13.8042 12.6081 13.6361L10.0189 12.9134C9.10964 13.3791 8.091 13.6667 6.99999 13.6667C3.32409 13.6667 0.333324 10.6759 0.333324 7.00001C0.333324 3.32411 3.32409 0.333344 6.99999 0.333344ZM6.99999 1.33334C3.86456 1.33334 1.33332 3.86458 1.33332 7.00001C1.33332 10.1354 3.86456 12.6667 6.99999 12.6667C8.00098 12.6667 8.9359 12.4061 9.75194 11.9512C9.86716 11.8869 10.0031 11.8707 10.1302 11.9063L12.5924 12.5938L11.9049 10.1328C11.8694 10.0057 11.8856 9.86979 11.9499 9.75457C12.4054 8.93783 12.6667 8.00152 12.6667 7.00001C12.6667 3.86458 10.1354 1.33334 6.99999 1.33334Z" fill="#5E5E5E"/>
</svg>
