<svg width="22" height="14" viewBox="0 0 22 14" fill="none" xmlns="http://www.w3.org/2000/svg">
<path d="M1.41137 0.600078C1.30536 0.598579 1.20011 0.618164 1.10174 0.657695C1.00336 0.697226 0.913824 0.755915 0.838328 0.83035C0.762832 0.904786 0.702883 0.993484 0.661965 1.09129C0.621047 1.1891 0.599976 1.29406 0.599976 1.40008C0.599976 1.5061 0.621047 1.61106 0.661965 1.70887C0.702883 1.80667 0.762832 1.89537 0.838328 1.96981C0.913824 2.04424 1.00336 2.10293 1.10174 2.14246C1.20011 2.18199 1.30536 2.20158 1.41137 2.20008H20.6114C20.7174 2.20158 20.8226 2.18199 20.921 2.14246C21.0194 2.10293 21.1089 2.04424 21.1844 1.96981C21.2599 1.89537 21.3199 1.80667 21.3608 1.70887C21.4017 1.61106 21.4228 1.5061 21.4228 1.40008C21.4228 1.29406 21.4017 1.1891 21.3608 1.09129C21.3199 0.993484 21.2599 0.904786 21.1844 0.83035C21.1089 0.755915 21.0194 0.697226 20.921 0.657695C20.8226 0.618164 20.7174 0.598579 20.6114 0.600078H1.41137ZM1.41137 6.20008C1.30536 6.19858 1.20011 6.21816 1.10174 6.2577C1.00336 6.29723 0.913824 6.35592 0.838328 6.43035C0.762832 6.50479 0.702883 6.59348 0.661965 6.69129C0.621047 6.7891 0.599976 6.89406 0.599976 7.00008C0.599976 7.1061 0.621047 7.21106 0.661965 7.30887C0.702883 7.40667 0.762832 7.49537 0.838328 7.56981C0.913824 7.64424 1.00336 7.70293 1.10174 7.74246C1.20011 7.78199 1.30536 7.80158 1.41137 7.80008H20.6114C20.7174 7.80158 20.8226 7.78199 20.921 7.74246C21.0194 7.70293 21.1089 7.64424 21.1844 7.56981C21.2599 7.49537 21.3199 7.40667 21.3608 7.30887C21.4017 7.21106 21.4228 7.1061 21.4228 7.00008C21.4228 6.89406 21.4017 6.7891 21.3608 6.69129C21.3199 6.59348 21.2599 6.50479 21.1844 6.43035C21.1089 6.35592 21.0194 6.29723 20.921 6.2577C20.8226 6.21816 20.7174 6.19858 20.6114 6.20008H1.41137ZM1.41137 11.8001C1.30536 11.7986 1.20011 11.8182 1.10174 11.8577C1.00336 11.8972 0.913824 11.9559 0.838328 12.0304C0.762832 12.1048 0.702883 12.1935 0.661965 12.2913C0.621047 12.3891 0.599976 12.4941 0.599976 12.6001C0.599976 12.7061 0.621047 12.8111 0.661965 12.9089C0.702883 13.0067 0.762832 13.0954 0.838328 13.1698C0.913824 13.2442 1.00336 13.3029 1.10174 13.3425C1.20011 13.382 1.30536 13.4016 1.41137 13.4001H20.6114C20.7174 13.4016 20.8226 13.382 20.921 13.3425C21.0194 13.3029 21.1089 13.2442 21.1844 13.1698C21.2599 13.0954 21.3199 13.0067 21.3608 12.9089C21.4017 12.8111 21.4228 12.7061 21.4228 12.6001C21.4228 12.4941 21.4017 12.3891 21.3608 12.2913C21.3199 12.1935 21.2599 12.1048 21.1844 12.0304C21.1089 11.9559 21.0194 11.8972 20.921 11.8577C20.8226 11.8182 20.7174 11.7986 20.6114 11.8001H1.41137Z" fill="black"/>
</svg>
