<svg width="52" height="52" viewBox="0 0 52 52" fill="none" xmlns="http://www.w3.org/2000/svg">
<g clip-path="url(#clip0_102_719)">
<rect x="-14" y="0.646851" width="33" height="33" transform="rotate(-16.3001 -14 0.646851)" fill="#F7F7F7"/>
<rect x="-11.2937" y="38.405" width="33" height="33" transform="rotate(-16.3001 -11.2937 38.405)" fill="#F7F7F7"/>
<rect x="21.5128" y="-9.73792" width="33" height="33" transform="rotate(-16.3001 21.5128 -9.73792)" fill="#F7F7F7"/>
<rect x="24.2191" y="28.0202" width="33" height="33" transform="rotate(-16.3001 24.2191 28.0202)" fill="#F7F7F7"/>
<path d="M25.075 37.5202C18.264 27.6421 17 26.6291 17 23.0001C17 18.029 21.029 14 26 14C30.971 14 35 18.029 35 23.0001C35 26.6291 33.736 27.6401 26.925 37.5162C26.8216 37.6652 26.6837 37.787 26.5231 37.8712C26.3625 37.9554 26.1839 37.9996 26.0025 38C25.8212 38.0004 25.6424 37.957 25.4815 37.8734C25.3205 37.7899 25.1821 37.6687 25.078 37.5202L25.076 37.5162L25.075 37.5202ZM26 26.7501C26.9946 26.7501 27.9484 26.355 28.6517 25.6518C29.3549 24.9485 29.75 23.9947 29.75 23.0001C29.75 22.0055 29.3549 21.0517 28.6517 20.3484C27.9484 19.6451 26.9946 19.25 26 19.25C25.0054 19.25 24.0516 19.6451 23.3483 20.3484C22.6451 21.0517 22.25 22.0055 22.25 23.0001C22.25 23.9947 22.6451 24.9485 23.3483 25.6518C24.0516 26.355 25.0054 26.7501 26 26.7501Z" fill="#FF7E36"/>
</g>
<defs>
<clipPath id="clip0_102_719">
<rect width="52" height="52" fill="white"/>
</clipPath>
</defs>
</svg>
