<svg width="16" height="16" viewBox="0 0 16 16" fill="none" xmlns="http://www.w3.org/2000/svg">
<path d="M8.00001 1.33334C4.32403 1.33334 1.33334 4.32403 1.33334 8.00001C1.33334 11.676 4.32403 14.6667 8.00001 14.6667C11.676 14.6667 14.6667 11.676 14.6667 8.00001C14.6667 4.32403 11.676 1.33334 8.00001 1.33334ZM8.00001 2.33334C11.1355 2.33334 13.6667 4.86447 13.6667 8.00001C13.6667 11.1355 11.1355 13.6667 8.00001 13.6667C4.86447 13.6667 2.33334 11.1355 2.33334 8.00001C2.33334 4.86447 4.86447 2.33334 8.00001 2.33334ZM10.4902 5.99545C10.3604 5.99924 10.2371 6.05341 10.1465 6.14649L7.16668 9.12631L5.85353 7.81316C5.80745 7.76518 5.75227 7.72686 5.6912 7.70047C5.63014 7.67408 5.56442 7.66014 5.4979 7.65946C5.43139 7.65879 5.3654 7.67139 5.30381 7.69654C5.24222 7.72168 5.18627 7.75886 5.13923 7.8059C5.09219 7.85294 5.05501 7.90889 5.02987 7.97048C5.00472 8.03207 4.99212 8.09805 4.9928 8.16457C4.99347 8.23109 5.00742 8.29681 5.03381 8.35787C5.0602 8.41893 5.09851 8.47412 5.14649 8.52019L6.81316 10.1869C6.90693 10.2806 7.03409 10.3332 7.16668 10.3332C7.29926 10.3332 7.42642 10.2806 7.52019 10.1869L10.8535 6.85353C10.9257 6.78327 10.9749 6.69288 10.9948 6.59418C11.0147 6.49548 11.0044 6.39306 10.9651 6.30034C10.9259 6.20762 10.8595 6.12891 10.7748 6.07451C10.6901 6.02011 10.5909 5.99255 10.4902 5.99545Z" fill="#5E5E5E"/>
</svg>
