<svg width="24" height="24" viewBox="0 0 24 24" fill="none" xmlns="http://www.w3.org/2000/svg">
<path d="M3.75 3C2.51625 3 1.5 4.01625 1.5 5.25V17.75C1.5 19.536 2.96403 21 4.75 21H19.25C21.036 21 22.5 19.536 22.5 17.75V10.25C22.5 9.01625 21.4838 8 20.25 8H19.5V5.25C19.5 4.01625 18.4838 3 17.25 3H3.75ZM3.75 4.5H17.25C17.6733 4.5 18 4.82675 18 5.25V8.62695C17.9868 8.70747 17.9868 8.7896 18 8.87012V17.25C17.9986 17.3494 18.017 17.4481 18.054 17.5403C18.0911 17.6325 18.1461 17.7164 18.2159 17.7872C18.2857 17.858 18.3688 17.9142 18.4605 17.9526C18.5522 17.9909 18.6506 18.0107 18.75 18.0107C18.8494 18.0107 18.9478 17.9909 19.0395 17.9526C19.1312 17.9142 19.2143 17.858 19.2841 17.7872C19.3539 17.7164 19.4089 17.6325 19.446 17.5403C19.483 17.4481 19.5014 17.3494 19.5 17.25V9.5H20.25C20.6733 9.5 21 9.82675 21 10.25V17.75C21 18.725 20.225 19.5 19.25 19.5H4.75C3.77497 19.5 3 18.725 3 17.75V5.25C3 4.82675 3.32675 4.5 3.75 4.5ZM5.25 7.5C5.15062 7.49859 5.05194 7.51696 4.95972 7.55402C4.86749 7.59108 4.78355 7.6461 4.71277 7.71588C4.642 7.78566 4.58579 7.86882 4.54743 7.96051C4.50907 8.0522 4.48932 8.15061 4.48932 8.25C4.48932 8.34939 4.50907 8.4478 4.54743 8.53949C4.58579 8.63118 4.642 8.71434 4.71277 8.78412C4.78355 8.8539 4.86749 8.90892 4.95972 8.94598C5.05194 8.98304 5.15062 9.00141 5.25 9H15.75C15.8494 9.00141 15.9481 8.98304 16.0403 8.94598C16.1325 8.90892 16.2164 8.8539 16.2872 8.78412C16.358 8.71434 16.4142 8.63118 16.4526 8.53949C16.4909 8.4478 16.5107 8.34939 16.5107 8.25C16.5107 8.15061 16.4909 8.0522 16.4526 7.96051C16.4142 7.86882 16.358 7.78566 16.2872 7.71588C16.2164 7.6461 16.1325 7.59108 16.0403 7.55402C15.9481 7.51696 15.8494 7.49859 15.75 7.5H5.25ZM5.25 11.5C5.05109 11.5 4.86034 11.579 4.71969 11.7197C4.57904 11.8603 4.50002 12.0511 4.5 12.25V15.75C4.50002 15.9489 4.57904 16.1397 4.71969 16.2803C4.86034 16.421 5.05109 16.5 5.25 16.5H8.75C8.94891 16.5 9.13966 16.421 9.28031 16.2803C9.42096 16.1397 9.49998 15.9489 9.5 15.75V12.25C9.49998 12.0511 9.42096 11.8603 9.28031 11.7197C9.13966 11.579 8.94891 11.5 8.75 11.5H5.25ZM11.75 11.5C11.6506 11.4986 11.5519 11.517 11.4597 11.554C11.3675 11.5911 11.2836 11.6461 11.2128 11.7159C11.142 11.7857 11.0858 11.8688 11.0474 11.9605C11.0091 12.0522 10.9893 12.1506 10.9893 12.25C10.9893 12.3494 11.0091 12.4478 11.0474 12.5395C11.0858 12.6312 11.142 12.7143 11.2128 12.7841C11.2836 12.8539 11.3675 12.9089 11.4597 12.946C11.5519 12.983 11.6506 13.0014 11.75 13H15.75C15.8494 13.0014 15.9481 12.983 16.0403 12.946C16.1325 12.9089 16.2164 12.8539 16.2872 12.7841C16.358 12.7143 16.4142 12.6312 16.4526 12.5395C16.4909 12.4478 16.5107 12.3494 16.5107 12.25C16.5107 12.1506 16.4909 12.0522 16.4526 11.9605C16.4142 11.8688 16.358 11.7857 16.2872 11.7159C16.2164 11.6461 16.1325 11.5911 16.0403 11.554C15.9481 11.517 15.8494 11.4986 15.75 11.5H11.75ZM6 13H8V15H6V13ZM11.75 15C11.6506 14.9986 11.5519 15.017 11.4597 15.054C11.3675 15.0911 11.2836 15.1461 11.2128 15.2159C11.142 15.2857 11.0858 15.3688 11.0474 15.4605C11.0091 15.5522 10.9893 15.6506 10.9893 15.75C10.9893 15.8494 11.0091 15.9478 11.0474 16.0395C11.0858 16.1312 11.142 16.2143 11.2128 16.2841C11.2836 16.3539 11.3675 16.4089 11.4597 16.446C11.5519 16.483 11.6506 16.5014 11.75 16.5H15.75C15.8494 16.5014 15.9481 16.483 16.0403 16.446C16.1325 16.4089 16.2164 16.3539 16.2872 16.2841C16.358 16.2143 16.4142 16.1312 16.4526 16.0395C16.4909 15.9478 16.5107 15.8494 16.5107 15.75C16.5107 15.6506 16.4909 15.5522 16.4526 15.4605C16.4142 15.3688 16.358 15.2857 16.2872 15.2159C16.2164 15.1461 16.1325 15.0911 16.0403 15.054C15.9481 15.017 15.8494 14.9986 15.75 15H11.75Z" fill="black"/>
</svg>
