<svg width="16" height="16" viewBox="0 0 16 16" fill="none" xmlns="http://www.w3.org/2000/svg">
<path d="M7.99999 1.33334C11.6759 1.33334 14.6667 4.32411 14.6667 8.00001C14.6667 9.09178 14.3791 10.1116 13.9128 11.0215L14.6354 13.6094C14.8037 14.2105 14.2093 14.8042 13.6081 14.6361L11.0189 13.9134C10.1096 14.3791 9.091 14.6667 7.99999 14.6667C4.32409 14.6667 1.33332 11.6759 1.33332 8.00001C1.33332 4.32411 4.32409 1.33334 7.99999 1.33334ZM7.99999 2.33334C4.86456 2.33334 2.33332 4.86458 2.33332 8.00001C2.33332 11.1354 4.86456 13.6667 7.99999 13.6667C9.00098 13.6667 9.9359 13.4061 10.7519 12.9512C10.8672 12.8869 11.0031 12.8707 11.1302 12.9063L13.5924 13.5938L12.9049 11.1328C12.8694 11.0057 12.8856 10.8698 12.9499 10.7546C13.4054 9.93783 13.6667 9.00152 13.6667 8.00001C13.6667 4.86458 11.1354 2.33334 7.99999 2.33334Z" fill="#5E5E5E"/>
</svg>
