<svg width="16" height="16" viewBox="0 0 16 16" fill="none" xmlns="http://www.w3.org/2000/svg">
<path d="M14.4219 4.43125C14.2124 3.94631 13.9104 3.50686 13.5328 3.1375C13.1549 2.76704 12.7093 2.47264 12.2203 2.27031C11.7132 2.05968 11.1694 1.95186 10.6203 1.95312C9.85 1.95312 9.09844 2.16406 8.44531 2.5625C8.28906 2.65781 8.14062 2.7625 8 2.87656C7.85938 2.7625 7.71094 2.65781 7.55469 2.5625C6.90156 2.16406 6.15 1.95312 5.37969 1.95312C4.825 1.95312 4.2875 2.05937 3.77969 2.27031C3.28906 2.47344 2.84687 2.76562 2.46719 3.1375C2.08906 3.50644 1.787 3.94599 1.57812 4.43125C1.36094 4.93594 1.25 5.47187 1.25 6.02344C1.25 6.54375 1.35625 7.08594 1.56719 7.6375C1.74375 8.09844 1.99687 8.57656 2.32031 9.05937C2.83281 9.82344 3.5375 10.6203 4.4125 11.4281C5.8625 12.7672 7.29844 13.6922 7.35938 13.7297L7.72969 13.9672C7.89375 14.0719 8.10469 14.0719 8.26875 13.9672L8.63906 13.7297C8.7 13.6906 10.1344 12.7672 11.5859 11.4281C12.4609 10.6203 13.1656 9.82344 13.6781 9.05937C14.0016 8.57656 14.2562 8.09844 14.4312 7.6375C14.6422 7.08594 14.7484 6.54375 14.7484 6.02344C14.75 5.47187 14.6391 4.93594 14.4219 4.43125ZM8 12.7312C8 12.7312 2.4375 9.16719 2.4375 6.02344C2.4375 4.43125 3.75469 3.14062 5.37969 3.14062C6.52187 3.14062 7.5125 3.77812 8 4.70937C8.4875 3.77812 9.47813 3.14062 10.6203 3.14062C12.2453 3.14062 13.5625 4.43125 13.5625 6.02344C13.5625 9.16719 8 12.7312 8 12.7312Z" fill="#8C8C8C"/>
</svg>
