<svg width="24" height="24" viewBox="0 0 24 24" fill="none" xmlns="http://www.w3.org/2000/svg">
<path d="M3.75 3C2.5095 3 1.5 4.0095 1.5 5.25V17.75C1.5 19.542 2.958 21 4.75 21H19.25C21.042 21 22.5 19.542 22.5 17.75V9.25C22.5 8.095 21.622 7.15139 20.5 7.02539V17.25C20.5 17.664 20.164 18 19.75 18C19.336 18 19 17.664 19 17.25V5.25C19 4.0095 17.9905 3 16.75 3H3.75ZM5.25 7.5H15.25C15.6645 7.5 16 7.836 16 8.25C16 8.664 15.6645 9 15.25 9H5.25C4.8355 9 4.5 8.664 4.5 8.25C4.5 7.836 4.8355 7.5 5.25 7.5ZM5.25 11.5H8.75C9.1645 11.5 9.5 11.836 9.5 12.25V15.75C9.5 16.164 9.1645 16.5 8.75 16.5H5.25C4.8355 16.5 4.5 16.164 4.5 15.75V12.25C4.5 11.836 4.8355 11.5 5.25 11.5ZM11.75 11.5H15.25C15.6645 11.5 16 11.836 16 12.25C16 12.664 15.6645 13 15.25 13H11.75C11.3355 13 11 12.664 11 12.25C11 11.836 11.3355 11.5 11.75 11.5ZM6 13V15H8V13H6ZM11.75 15H15.25C15.6645 15 16 15.336 16 15.75C16 16.164 15.6645 16.5 15.25 16.5H11.75C11.3355 16.5 11 16.164 11 15.75C11 15.336 11.3355 15 11.75 15Z" fill="black"/>
</svg>
