<svg width="18" height="18" viewBox="0 0 18 18" fill="none" xmlns="http://www.w3.org/2000/svg">
<path d="M3.75 0C2.75544 0 1.80161 0.395088 1.09835 1.09835C0.395088 1.80161 0 2.75544 0 3.75V5.25C0 5.44891 0.0790178 5.63968 0.21967 5.78033C0.360322 5.92098 0.551088 6 0.75 6C0.948912 6 1.13968 5.92098 1.28033 5.78033C1.42098 5.63968 1.5 5.44891 1.5 5.25V3.75C1.5 3.15326 1.73705 2.58097 2.15901 2.15901C2.58097 1.73705 3.15326 1.5 3.75 1.5H5.25C5.44891 1.5 5.63968 1.42098 5.78033 1.28033C5.92098 1.13968 6 0.948912 6 0.75C6 0.551088 5.92098 0.360322 5.78033 0.21967C5.63968 0.0790178 5.44891 0 5.25 0H3.75ZM12.75 0C12.5511 0 12.3603 0.0790178 12.2197 0.21967C12.079 0.360322 12 0.551088 12 0.75C12 0.948912 12.079 1.13968 12.2197 1.28033C12.3603 1.42098 12.5511 1.5 12.75 1.5H14.25C14.8467 1.5 15.419 1.73705 15.841 2.15901C16.2629 2.58097 16.5 3.15326 16.5 3.75V5.25C16.5 5.44891 16.579 5.63968 16.7197 5.78033C16.8603 5.92098 17.0511 6 17.25 6C17.4489 6 17.6397 5.92098 17.7803 5.78033C17.921 5.63968 18 5.44891 18 5.25V3.75C18 2.75544 17.6049 1.80161 16.9016 1.09835C16.1984 0.395088 15.2446 0 14.25 0H12.75ZM1.5 12.75C1.5 12.5511 1.42098 12.3603 1.28033 12.2197C1.13968 12.079 0.948912 12 0.75 12C0.551088 12 0.360322 12.079 0.21967 12.2197C0.0790178 12.3603 0 12.5511 0 12.75V14.25C0 15.2446 0.395088 16.1984 1.09835 16.9016C1.80161 17.6049 2.75544 18 3.75 18H5.25C5.44891 18 5.63968 17.921 5.78033 17.7803C5.92098 17.6397 6 17.4489 6 17.25C6 17.0511 5.92098 16.8603 5.78033 16.7197C5.63968 16.579 5.44891 16.5 5.25 16.5H3.75C3.15326 16.5 2.58097 16.2629 2.15901 15.841C1.73705 15.419 1.5 14.8467 1.5 14.25V12.75ZM18 12.75C18 12.5511 17.921 12.3603 17.7803 12.2197C17.6397 12.079 17.4489 12 17.25 12C17.0511 12 16.8603 12.079 16.7197 12.2197C16.579 12.3603 16.5 12.5511 16.5 12.75V14.25C16.5 14.8467 16.2629 15.419 15.841 15.841C15.419 16.2629 14.8467 16.5 14.25 16.5H12.75C12.5511 16.5 12.3603 16.579 12.2197 16.7197C12.079 16.8603 12 17.0511 12 17.25C12 17.4489 12.079 17.6397 12.2197 17.7803C12.3603 17.921 12.5511 18 12.75 18H14.25C15.2446 18 16.1984 17.6049 16.9016 16.9016C17.6049 16.1984 18 15.2446 18 14.25V12.75ZM4.5 8.25C4.30109 8.25 4.11032 8.32902 3.96967 8.46967C3.82902 8.61032 3.75 8.80109 3.75 9C3.75 9.19891 3.82902 9.38968 3.96967 9.53033C4.11032 9.67098 4.30109 9.75 4.5 9.75H13.5C13.6989 9.75 13.8897 9.67098 14.0303 9.53033C14.171 9.38968 14.25 9.19891 14.25 9C14.25 8.80109 14.171 8.61032 14.0303 8.46967C13.8897 8.32902 13.6989 8.25 13.5 8.25H4.5Z" fill="black"/>
</svg>
