<svg width="78" height="13" viewBox="0 0 78 13" fill="none" xmlns="http://www.w3.org/2000/svg">
<path opacity="0.35" d="M50.5 4C50.5 2.067 52.067 0.5 54 0.5H71C72.933 0.5 74.5 2.067 74.5 4V9C74.5 10.933 72.933 12.5 71 12.5H54C52.067 12.5 50.5 10.933 50.5 9V4Z" stroke="black"/>
<path opacity="0.4" d="M76 5V9.22034C76.8491 8.86291 77.4012 8.0314 77.4012 7.11017C77.4012 6.18894 76.8491 5.35744 76 5Z" fill="black"/>
<path d="M52 4C52 2.89543 52.8954 2 54 2H71C72.1046 2 73 2.89543 73 4V9C73 10.1046 72.1046 11 71 11H54C52.8954 11 52 10.1046 52 9V4Z" fill="black"/>
<path fill-rule="evenodd" clip-rule="evenodd" d="M34.5005 3.58753C36.967 3.58764 39.3393 4.55505 41.1269 6.28982C41.2615 6.42375 41.4766 6.42206 41.6092 6.28603L42.896 4.96045C42.9631 4.89146 43.0006 4.798 43 4.70076C42.9994 4.60353 42.9609 4.51052 42.893 4.44234C38.2011 -0.147446 30.7991 -0.147446 26.1072 4.44234C26.0392 4.51047 26.0006 4.60345 26 4.70069C25.9994 4.79792 26.0367 4.89141 26.1038 4.96045L27.391 6.28603C27.5235 6.42226 27.7388 6.42396 27.8733 6.28982C29.6612 4.55494 32.0337 3.58752 34.5005 3.58753ZM34.5359 7.58938C35.8911 7.58929 37.198 8.10346 38.2025 9.03199C38.3384 9.16376 38.5524 9.16091 38.6849 9.02555L39.9702 7.69997C40.0379 7.63044 40.0754 7.53611 40.0744 7.4381C40.0735 7.34008 40.034 7.24656 39.965 7.17844C36.9059 4.27385 32.1685 4.27385 29.1094 7.17844C29.0403 7.24656 29.0009 7.34013 29 7.43817C28.9991 7.53622 29.0368 7.63054 29.1046 7.69997L30.3895 9.02555C30.522 9.16091 30.736 9.16376 30.8719 9.03199C31.8758 8.10408 33.1816 7.58995 34.5359 7.58938ZM37.1496 10.1767C37.1515 10.275 37.1137 10.3698 37.0449 10.4386L34.8217 12.7289C34.7565 12.7962 34.6676 12.834 34.5749 12.834C34.4822 12.834 34.3933 12.7962 34.3282 12.7289L32.1045 10.4386C32.0358 10.3697 31.998 10.2749 32.0001 10.1766C32.0021 10.0783 32.0438 9.98527 32.1153 9.91938C33.5351 8.69354 35.6147 8.69354 37.0345 9.91938C37.106 9.98532 37.1476 10.0784 37.1496 10.1767Z" fill="black"/>
<path d="M10 4C10 3.44772 10.4477 3 11 3H12C12.5523 3 13 3.44772 13 4V12C13 12.5523 12.5523 13 12 13H11C10.4477 13 10 12.5523 10 12V4Z" fill="black"/>
<path d="M15 2C15 1.44772 15.4477 1 16 1H17C17.5523 1 18 1.44772 18 2V12C18 12.5523 17.5523 13 17 13H16C15.4477 13 15 12.5523 15 12V2Z" fill="black"/>
<path d="M5 7.5C5 6.94772 5.44772 6.5 6 6.5H7C7.55228 6.5 8 6.94772 8 7.5V12C8 12.5523 7.55228 13 7 13H6C5.44772 13 5 12.5523 5 12V7.5Z" fill="black"/>
<path d="M0 10C0 9.44772 0.447715 9 1 9H2C2.55228 9 3 9.44772 3 10V12C3 12.5523 2.55228 13 2 13H1C0.447715 13 0 12.5523 0 12V10Z" fill="black"/>
</svg>
