<svg width="54" height="21" viewBox="0 0 54 21" fill="none" xmlns="http://www.w3.org/2000/svg">
<path d="M15.8747 5.81445C18.2321 5.83105 20.5563 7.22559 20.5729 11.625C20.5729 15.7754 18.697 18.166 15.7419 18.166C13.4177 18.166 11.8239 16.7217 11.5583 14.7295H13.6999C13.9157 15.6758 14.6462 16.29 15.7419 16.29C17.485 16.29 18.4645 14.7461 18.4811 12.1729H18.3483C17.7341 13.2188 16.5886 13.833 15.2604 13.833C13.1188 13.833 11.4587 12.2061 11.4421 9.93164C11.4421 7.57422 13.2018 5.79785 15.8747 5.81445ZM15.8913 7.55762C14.5466 7.55762 13.5339 8.60352 13.5505 9.88184C13.5505 11.1768 14.5134 12.1895 15.8581 12.1895C17.1862 12.1895 18.2321 11.1104 18.2155 9.86523C18.2155 8.63672 17.236 7.55762 15.8913 7.55762ZM23.286 16.5059C22.5722 16.5059 21.9911 15.9248 21.9911 15.2109C21.9911 14.5137 22.5722 13.9326 23.286 13.9326C23.9667 13.9326 24.5644 14.5137 24.5644 15.2109C24.5644 15.9248 23.9667 16.5059 23.286 16.5059ZM23.286 10.0645C22.5722 10.0645 21.9911 9.4834 21.9911 8.76953C21.9911 8.07227 22.5722 7.49121 23.286 7.49121C23.9667 7.49121 24.5644 8.07227 24.5644 8.76953C24.5644 9.4834 23.9667 10.0645 23.286 10.0645ZM25.9659 15.7588V14.0322L31.1622 5.98047H33.8517V13.9824H35.4288V15.7588H33.8517V18H31.7931V15.7588H25.9659ZM28.1739 13.9824H31.8263V8.4375H31.6935L28.1739 13.8994V13.9824ZM41.4622 5.98047V18H39.2874V8.08887H39.221L36.4153 9.88184V7.90625L39.387 5.98047H41.4622Z" fill="black"/>
</svg>
