<svg width="26" height="16" viewBox="0 0 26 16" fill="none" xmlns="http://www.w3.org/2000/svg">
<path d="M3.33333 12V14.5107L4.34333 13.9047L7.518 12H10.6667C11.402 12 12 11.402 12 10.6667V5.33333C12 4.598 11.402 4 10.6667 4H2.66666C1.93133 4 1.33333 4.598 1.33333 5.33333V10.6667C1.33333 11.402 1.93133 12 2.66666 12H3.33333ZM2.66666 5.33333H10.6667V10.6667H7.14866L4.66666 12.156V10.6667H2.66666V5.33333Z" fill="#8C8C8C"/>
<path d="M13.3333 1.33333H5.33333C4.598 1.33333 4 1.93133 4 2.66667H12C12.7353 2.66667 13.3333 3.26467 13.3333 4V9.33333C14.0687 9.33333 14.6667 8.73533 14.6667 8V2.66667C14.6667 1.93133 14.0687 1.33333 13.3333 1.33333Z" fill="#8C8C8C"/>
<path d="M21.8523 12.1193C21.2898 12.1193 20.7884 12.0227 20.348 11.8295C19.9105 11.6364 19.5625 11.3679 19.304 11.0241C19.0483 10.6776 18.9091 10.2756 18.8864 9.81818H19.9602C19.983 10.0994 20.0795 10.3423 20.25 10.5469C20.4205 10.7486 20.6435 10.9048 20.919 11.0156C21.1946 11.1264 21.5 11.1818 21.8352 11.1818C22.2102 11.1818 22.5426 11.1165 22.8324 10.9858C23.1222 10.8551 23.3494 10.6733 23.5142 10.4403C23.679 10.2074 23.7614 9.9375 23.7614 9.63068C23.7614 9.30966 23.6818 9.02699 23.5227 8.78267C23.3636 8.53551 23.1307 8.34233 22.8239 8.20312C22.517 8.06392 22.142 7.99432 21.6989 7.99432H21V7.05682H21.6989C22.0455 7.05682 22.3494 6.99432 22.6108 6.86932C22.875 6.74432 23.081 6.56818 23.2287 6.34091C23.3793 6.11364 23.4545 5.84659 23.4545 5.53977C23.4545 5.24432 23.3892 4.98722 23.2585 4.76847C23.1278 4.54972 22.9432 4.37926 22.7045 4.2571C22.4688 4.13494 22.1903 4.07386 21.8693 4.07386C21.5682 4.07386 21.2841 4.12926 21.017 4.24006C20.7528 4.34801 20.5369 4.50568 20.3693 4.71307C20.2017 4.91761 20.1108 5.16477 20.0966 5.45455H19.0739C19.0909 4.99716 19.2287 4.59659 19.4872 4.25284C19.7457 3.90625 20.0838 3.63636 20.5014 3.44318C20.9219 3.25 21.3835 3.15341 21.8864 3.15341C22.4261 3.15341 22.8892 3.26278 23.2756 3.48153C23.6619 3.69744 23.9588 3.98295 24.1662 4.33807C24.3736 4.69318 24.4773 5.0767 24.4773 5.48864C24.4773 5.98011 24.348 6.39915 24.0895 6.74574C23.8338 7.09233 23.4858 7.33239 23.0455 7.46591V7.53409C23.5966 7.625 24.027 7.85937 24.3366 8.23722C24.6463 8.61222 24.8011 9.0767 24.8011 9.63068C24.8011 10.1051 24.6719 10.5312 24.4134 10.9091C24.1577 11.2841 23.8082 11.5795 23.3651 11.7955C22.9219 12.0114 22.4176 12.1193 21.8523 12.1193Z" fill="#8C8C8C"/>
</svg>
