<svg width="26" height="16" viewBox="0 0 26 16" fill="none" xmlns="http://www.w3.org/2000/svg">
<path d="M14.4219 4.43125C14.2124 3.9463 13.9104 3.50685 13.5328 3.1375C13.1549 2.76704 12.7093 2.47264 12.2203 2.27031C11.7132 2.05967 11.1694 1.95186 10.6203 1.95312C9.85 1.95312 9.09844 2.16406 8.44531 2.5625C8.28906 2.65781 8.14062 2.7625 8 2.87656C7.85938 2.7625 7.71094 2.65781 7.55469 2.5625C6.90156 2.16406 6.15 1.95312 5.37969 1.95312C4.825 1.95312 4.2875 2.05937 3.77969 2.27031C3.28906 2.47343 2.84687 2.76562 2.46719 3.1375C2.08906 3.50644 1.787 3.94599 1.57812 4.43125C1.36094 4.93593 1.25 5.47187 1.25 6.02343C1.25 6.54375 1.35625 7.08593 1.56719 7.6375C1.74375 8.09843 1.99687 8.57656 2.32031 9.05937C2.83281 9.82343 3.5375 10.6203 4.4125 11.4281C5.8625 12.7672 7.29844 13.6922 7.35938 13.7297L7.72969 13.9672C7.89375 14.0719 8.10469 14.0719 8.26875 13.9672L8.63906 13.7297C8.7 13.6906 10.1344 12.7672 11.5859 11.4281C12.4609 10.6203 13.1656 9.82343 13.6781 9.05937C14.0016 8.57656 14.2562 8.09843 14.4312 7.6375C14.6422 7.08593 14.7484 6.54375 14.7484 6.02343C14.75 5.47187 14.6391 4.93593 14.4219 4.43125ZM8 12.7312C8 12.7312 2.4375 9.16718 2.4375 6.02343C2.4375 4.43125 3.75469 3.14062 5.37969 3.14062C6.52187 3.14062 7.5125 3.77812 8 4.70937C8.4875 3.77812 9.47813 3.14062 10.6203 3.14062C12.2453 3.14062 13.5625 4.43125 13.5625 6.02343C13.5625 9.16718 8 12.7312 8 12.7312Z" fill="#8C8C8C"/>
<path d="M18.9034 12V11.233L21.7841 8.07955C22.1222 7.71023 22.4006 7.3892 22.6193 7.11648C22.8381 6.84091 23 6.58239 23.1051 6.34091C23.2131 6.09659 23.267 5.84091 23.267 5.57386C23.267 5.26705 23.1932 5.00142 23.0455 4.77699C22.9006 4.55256 22.7017 4.37926 22.4489 4.2571C22.196 4.13494 21.9119 4.07386 21.5966 4.07386C21.2614 4.07386 20.9688 4.14347 20.7188 4.28267C20.4716 4.41903 20.2798 4.6108 20.1435 4.85795C20.0099 5.10511 19.9432 5.39489 19.9432 5.72727H18.9375C18.9375 5.21591 19.0554 4.76705 19.2912 4.38068C19.527 3.99432 19.848 3.69318 20.2543 3.47727C20.6634 3.26136 21.1222 3.15341 21.6307 3.15341C22.142 3.15341 22.5952 3.26136 22.9901 3.47727C23.3849 3.69318 23.6946 3.98437 23.919 4.35085C24.1435 4.71733 24.2557 5.125 24.2557 5.57386C24.2557 5.89489 24.1974 6.20881 24.081 6.51562C23.9673 6.8196 23.7685 7.15909 23.4844 7.53409C23.2031 7.90625 22.8125 8.3608 22.3125 8.89773L20.3523 10.9943V11.0625H24.4091V12H18.9034Z" fill="#8C8C8C"/>
</svg>
