<svg width="78" height="42" viewBox="0 0 78 42" fill="none" xmlns="http://www.w3.org/2000/svg">
<path d="M46.75 21.5H42.25C41.5595 21.5 41 20.9405 41 20.25V15.75C41 15.1975 40.5525 14.75 40 14.75H38C37.4475 14.75 37 15.1975 37 15.75V20.25C37 20.9405 36.4405 21.5 35.75 21.5H31.25C30.5595 21.5 30 20.9405 30 20.25V10.7065C30 9.557 30.527 8.471 31.4295 7.76L38.5355 2.1605C38.808 1.9465 39.192 1.9465 39.464 2.1605L46.571 7.76C47.4735 8.471 48 9.5565 48 10.7055V20.25C48 20.9405 47.4405 21.5 46.75 21.5Z" fill="black"/>
<path d="M35.49 37.08V39.66H41.66V37.08H35.49ZM40.85 37.72V39.03H36.31V37.72H40.85ZM34.92 31.48V32.13H42.19V31.48H34.92ZM38.58 32.49C36.71 32.49 35.66 32.93 35.66 33.77C35.66 34.61 36.71 35.05 38.58 35.05C40.44 35.05 41.5 34.61 41.5 33.77C41.5 32.93 40.44 32.49 38.58 32.49ZM38.58 33.07C39.88 33.07 40.61 33.32 40.61 33.77C40.61 34.22 39.88 34.47 38.58 34.47C37.27 34.47 36.54 34.22 36.54 33.77C36.54 33.32 37.27 33.07 38.58 33.07ZM38.17 30.61V31.9H38.99V30.61H38.17ZM34.49 35.74V36.39H42.66V35.74H34.49ZM38.17 34.85V36.1H38.99V34.85H38.17Z" fill="black"/>
</svg>
