<svg width="78" height="42" viewBox="0 0 78 42" fill="none" xmlns="http://www.w3.org/2000/svg">
<path d="M30.75 3C29.5162 3 28.5 4.01625 28.5 5.25V17.75C28.5 19.536 29.964 21 31.75 21H46.25C48.036 21 49.5 19.536 49.5 17.75V10.25C49.5 9.01625 48.4838 8 47.25 8H46.5V5.25C46.5 4.01625 45.4838 3 44.25 3H30.75ZM30.75 4.5H44.25C44.6733 4.5 45 4.82675 45 5.25V8.62695C44.9868 8.70747 44.9868 8.7896 45 8.87012V17.25C44.9986 17.3494 45.017 17.4481 45.054 17.5403C45.0911 17.6325 45.1461 17.7164 45.2159 17.7872C45.2857 17.858 45.3688 17.9142 45.4605 17.9526C45.5522 17.9909 45.6506 18.0107 45.75 18.0107C45.8494 18.0107 45.9478 17.9909 46.0395 17.9526C46.1312 17.9142 46.2143 17.858 46.2841 17.7872C46.3539 17.7164 46.4089 17.6325 46.446 17.5403C46.483 17.4481 46.5014 17.3494 46.5 17.25V9.5H47.25C47.6733 9.5 48 9.82675 48 10.25V17.75C48 18.725 47.225 19.5 46.25 19.5H31.75C30.775 19.5 30 18.725 30 17.75V5.25C30 4.82675 30.3268 4.5 30.75 4.5ZM32.25 7.5C32.1506 7.49859 32.0519 7.51696 31.9597 7.55402C31.8675 7.59108 31.7836 7.6461 31.7128 7.71588C31.642 7.78566 31.5858 7.86882 31.5474 7.96051C31.5091 8.0522 31.4893 8.15061 31.4893 8.25C31.4893 8.34939 31.5091 8.4478 31.5474 8.53949C31.5858 8.63118 31.642 8.71434 31.7128 8.78412C31.7836 8.8539 31.8675 8.90892 31.9597 8.94598C32.0519 8.98304 32.1506 9.00141 32.25 9H42.75C42.8494 9.00141 42.9481 8.98304 43.0403 8.94598C43.1325 8.90892 43.2164 8.8539 43.2872 8.78412C43.358 8.71434 43.4142 8.63118 43.4526 8.53949C43.4909 8.4478 43.5107 8.34939 43.5107 8.25C43.5107 8.15061 43.4909 8.0522 43.4526 7.96051C43.4142 7.86882 43.358 7.78566 43.2872 7.71588C43.2164 7.6461 43.1325 7.59108 43.0403 7.55402C42.9481 7.51696 42.8494 7.49859 42.75 7.5H32.25ZM32.25 11.5C32.0511 11.5 31.8603 11.579 31.7197 11.7197C31.579 11.8603 31.5 12.0511 31.5 12.25V15.75C31.5 15.9489 31.579 16.1397 31.7197 16.2803C31.8603 16.421 32.0511 16.5 32.25 16.5H35.75C35.9489 16.5 36.1397 16.421 36.2803 16.2803C36.421 16.1397 36.5 15.9489 36.5 15.75V12.25C36.5 12.0511 36.421 11.8603 36.2803 11.7197C36.1397 11.579 35.9489 11.5 35.75 11.5H32.25ZM38.75 11.5C38.6506 11.4986 38.5519 11.517 38.4597 11.554C38.3675 11.5911 38.2836 11.6461 38.2128 11.7159C38.142 11.7857 38.0858 11.8688 38.0474 11.9605C38.0091 12.0522 37.9893 12.1506 37.9893 12.25C37.9893 12.3494 38.0091 12.4478 38.0474 12.5395C38.0858 12.6312 38.142 12.7143 38.2128 12.7841C38.2836 12.8539 38.3675 12.9089 38.4597 12.946C38.5519 12.983 38.6506 13.0014 38.75 13H42.75C42.8494 13.0014 42.9481 12.983 43.0403 12.946C43.1325 12.9089 43.2164 12.8539 43.2872 12.7841C43.358 12.7143 43.4142 12.6312 43.4526 12.5395C43.4909 12.4478 43.5107 12.3494 43.5107 12.25C43.5107 12.1506 43.4909 12.0522 43.4526 11.9605C43.4142 11.8688 43.358 11.7857 43.2872 11.7159C43.2164 11.6461 43.1325 11.5911 43.0403 11.554C42.9481 11.517 42.8494 11.4986 42.75 11.5H38.75ZM33 13H35V15H33V13ZM38.75 15C38.6506 14.9986 38.5519 15.017 38.4597 15.054C38.3675 15.0911 38.2836 15.1461 38.2128 15.2159C38.142 15.2857 38.0858 15.3688 38.0474 15.4605C38.0091 15.5522 37.9893 15.6506 37.9893 15.75C37.9893 15.8494 38.0091 15.9478 38.0474 16.0395C38.0858 16.1312 38.142 16.2143 38.2128 16.2841C38.2836 16.3539 38.3675 16.4089 38.4597 16.446C38.5519 16.483 38.6506 16.5014 38.75 16.5H42.75C42.8494 16.5014 42.9481 16.483 43.0403 16.446C43.1325 16.4089 43.2164 16.3539 43.2872 16.2841C43.358 16.2143 43.4142 16.1312 43.4526 16.0395C43.4909 15.9478 43.5107 15.8494 43.5107 15.75C43.5107 15.6506 43.4909 15.5522 43.4526 15.4605C43.4142 15.3688 43.358 15.2857 43.2872 15.2159C43.2164 15.1461 43.1325 15.0911 43.0403 15.054C42.9481 15.017 42.8494 14.9986 42.75 15H38.75Z" fill="black"/>
<path d="M21 35.19V35.87H29.17V35.19H21ZM24.67 33.74V35.47H25.49V33.74H24.67ZM22.03 33.48V34.16H28.22V33.48H22.03ZM22.03 31.15V33.88H22.85V31.82H28.15V31.15H22.03ZM25.07 36.52C23.14 36.52 21.97 37.11 21.97 38.14C21.97 39.19 23.14 39.77 25.07 39.77C27 39.77 28.17 39.19 28.17 38.14C28.17 37.11 27 36.52 25.07 36.52ZM25.07 37.16C26.49 37.16 27.33 37.52 27.33 38.14C27.33 38.77 26.49 39.12 25.07 39.12C23.66 39.12 22.81 38.77 22.81 38.14C22.81 37.52 23.66 37.16 25.07 37.16ZM30.6292 31.71V37.01H31.4492V31.71H30.6292ZM30.6292 36.77V37.49H31.2092C32.2992 37.49 33.3092 37.44 34.4892 37.2L34.3792 36.49C33.2392 36.72 32.2592 36.77 31.2092 36.77H30.6292ZM37.0792 30.74V39.78H37.8792V30.74H37.0792ZM33.1392 33.77V34.46H35.3992V33.77H33.1392ZM35.1692 30.95V39.32H35.9492V30.95H35.1692ZM41.2884 31.3V32.51C41.2884 33.53 40.5784 34.7 39.3884 35.22L39.8384 35.87C41.1684 35.28 41.9484 33.86 41.9484 32.51V31.3H41.2884ZM41.4184 31.3V32.51C41.4184 33.84 42.1684 35.09 43.4684 35.61L43.9184 34.98C42.7584 34.53 42.0784 33.51 42.0784 32.51V31.3H41.4184ZM46.2184 30.75V36.32H47.0084V30.75H46.2184ZM44.7784 33.16V33.84H46.4884V33.16H44.7784ZM44.2784 30.92V36.03H45.0684V30.92H44.2784ZM44.0384 36.52C42.1684 36.52 41.0284 37.12 41.0284 38.15C41.0284 39.17 42.1684 39.76 44.0384 39.76C45.8984 39.76 47.0584 39.17 47.0584 38.15C47.0584 37.12 45.8984 36.52 44.0384 36.52ZM44.0384 37.17C45.3984 37.17 46.2284 37.53 46.2284 38.15C46.2284 38.76 45.3984 39.12 44.0384 39.12C42.6784 39.12 41.8384 38.76 41.8384 38.15C41.8384 37.53 42.6784 37.17 44.0384 37.17ZM54.7677 30.74V36.07H55.5977V30.74H54.7677ZM55.2477 33.05V33.74H56.9177V33.05H55.2477ZM49.7477 36.48V37.07H54.7877V37.76H49.7677V39.27H50.5777V38.31H55.5977V36.48H49.7477ZM49.7677 39.09V39.68H55.9477V39.09H49.7677ZM50.9577 34.45V35.6H51.7877V34.45H50.9577ZM48.6377 35.87C50.2177 35.87 52.3677 35.86 54.2977 35.52L54.2277 34.99C52.3677 35.25 50.1477 35.26 48.5377 35.26L48.6377 35.87ZM48.7677 31.43V32.02H53.9577V31.43H48.7677ZM51.3677 32.3C50.0777 32.3 49.2577 32.74 49.2577 33.49C49.2577 34.24 50.0777 34.68 51.3677 34.68C52.6477 34.68 53.4677 34.24 53.4677 33.49C53.4677 32.74 52.6477 32.3 51.3677 32.3ZM51.3677 32.85C52.1777 32.85 52.6877 33.09 52.6877 33.49C52.6877 33.89 52.1777 34.14 51.3677 34.14C50.5577 34.14 50.0377 33.89 50.0377 33.49C50.0377 33.09 50.5577 32.85 51.3677 32.85ZM50.9577 30.65V31.74H51.7877V30.65H50.9577Z" fill="black"/>
</svg>
