<svg width="22" height="20" viewBox="0 0 22 20" fill="none" xmlns="http://www.w3.org/2000/svg">
<path d="M20.6328 4.64689C20.3187 3.91948 19.8657 3.2603 19.2992 2.70627C18.7323 2.15058 18.064 1.70898 17.3305 1.40549C16.5699 1.08953 15.7541 0.927808 14.9305 0.929704C13.775 0.929704 12.6477 1.24611 11.668 1.84377C11.4336 1.98674 11.2109 2.14377 11 2.31486C10.7891 2.14377 10.5664 1.98674 10.332 1.84377C9.35234 1.24611 8.225 0.929704 7.06953 0.929704C6.2375 0.929704 5.43125 1.08908 4.66953 1.40549C3.93359 1.71017 3.27031 2.14845 2.70078 2.70627C2.13359 3.25968 1.6805 3.91901 1.36719 4.64689C1.04141 5.40392 0.875 6.20783 0.875 7.03517C0.875 7.81564 1.03438 8.62892 1.35078 9.45627C1.61563 10.1477 1.99531 10.8649 2.48047 11.5891C3.24922 12.7352 4.30625 13.9305 5.61875 15.1422C7.79375 17.1508 9.94766 18.5383 10.0391 18.5945L10.5945 18.9508C10.8406 19.1078 11.157 19.1078 11.4031 18.9508L11.9586 18.5945C12.05 18.536 14.2016 17.1508 16.3789 15.1422C17.6914 13.9305 18.7484 12.7352 19.5172 11.5891C20.0023 10.8649 20.3844 10.1477 20.6469 9.45627C20.9633 8.62892 21.1227 7.81564 21.1227 7.03517C21.125 6.20783 20.9586 5.40392 20.6328 4.64689ZM11 17.0969C11 17.0969 2.65625 11.7508 2.65625 7.03517C2.65625 4.64689 4.63203 2.71095 7.06953 2.71095C8.78281 2.71095 10.2688 3.6672 11 5.06408C11.7312 3.6672 13.2172 2.71095 14.9305 2.71095C17.368 2.71095 19.3438 4.64689 19.3438 7.03517C19.3438 11.7508 11 17.0969 11 17.0969Z" fill="#8C8C8C"/>
</svg>
